<?xml version="1.0" standalone="no"?>
<!DOCTYPE svg PUBLIC "-//W3C//DTD SVG 20010904//EN"
 "http://www.w3.org/TR/2001/REC-SVG-20010904/DTD/svg10.dtd">
<svg version="1.0" xmlns="http://www.w3.org/2000/svg" fill="#ffffff"
 width="434.000000pt" height="126.500000pt" viewBox="0 0 868.000000 253.000000"
 preserveAspectRatio="xMidYMid meet">

<g transform="translate(0.000000,253.000000) scale(0.100000,-0.100000)"
fill="#000000" stroke="none">
<path d="M4430 2514 c-231 -44 -408 -139 -558 -300 -126 -135 -206 -289 -244
-474 -28 -133 -21 -327 16 -455 98 -338 357 -594 691 -681 143 -37 327 -37
470 0 334 87 593 343 691 681 37 128 44 322 16 455 -63 304 -255 554 -527 685
-136 66 -224 87 -390 90 -77 2 -151 1 -165 -1z m343 -164 c281 -71 511 -304
589 -595 28 -107 30 -298 4 -400 -78 -299 -293 -524 -583 -607 -112 -32 -314
-32 -426 0 -290 83 -505 307 -583 607 -26 101 -24 293 5 400 23 89 96 242 141
295 l29 35 1 -87 0 -88 170 0 170 0 0 -460 0 -460 100 0 100 0 0 460 0 460
170 0 170 0 0 90 0 90 -435 0 c-254 0 -435 4 -435 9 0 15 100 101 172 148 80
52 191 97 273 112 33 6 71 13 85 15 49 9 209 -5 283 -24z"/>
<path d="M4950 1540 l0 -550 110 0 110 0 0 550 0 550 -110 0 -110 0 0 -550z"/>
<path d="M5852 2191 c-29 -10 -70 -32 -90 -48 -46 -36 -98 -112 -112 -161 -6
-23 -10 -220 -10 -514 l0 -478 100 0 100 0 0 260 0 260 120 0 120 0 0 100 0
100 -120 0 -120 0 0 96 c0 110 16 156 64 185 27 16 52 19 174 19 l142 0 0 100
0 100 -157 0 c-126 -1 -169 -4 -211 -19z"/>
<path d="M6340 2110 l0 -100 100 0 100 0 0 100 0 100 -100 0 -100 0 0 -100z"/>
<path d="M0 2060 l0 -90 100 0 100 0 0 90 0 90 -100 0 -100 0 0 -90z"/>
<path d="M1120 1991 l0 -160 -56 34 c-60 36 -165 65 -236 65 -61 0 -160 -25
-221 -56 -69 -35 -177 -145 -210 -214 -56 -117 -70 -230 -42 -348 54 -227 246
-382 475 -382 80 0 186 25 225 54 19 14 19 15 -14 83 -18 38 -41 79 -50 91
-16 22 -18 22 -54 7 -52 -22 -152 -19 -207 6 -216 97 -226 397 -16 507 42 22
64 26 126 27 114 0 195 -49 248 -150 l27 -50 3 -277 3 -278 100 0 99 0 0 600
0 600 -100 0 -100 0 0 -159z"/>
<path d="M7075 2000 c-220 -47 -377 -212 -408 -427 -36 -245 126 -482 374
-548 112 -30 253 -15 363 39 53 26 126 81 126 96 0 4 -34 38 -75 74 l-74 67
-38 -30 c-50 -40 -113 -61 -182 -61 -161 0 -287 119 -298 280 -18 253 270 409
476 259 l44 -31 68 68 c38 38 69 74 69 80 0 19 -103 84 -176 110 -75 28 -202
39 -269 24z"/>
<path d="M8075 2000 c-220 -47 -377 -212 -408 -427 -36 -245 126 -482 374
-548 118 -32 271 -12 377 49 l42 25 0 -35 0 -34 110 0 110 0 0 480 0 480 -110
0 -110 0 0 -36 0 -36 -37 22 c-92 54 -250 82 -348 60z m220 -224 c189 -93 220
-353 60 -494 -55 -49 -119 -72 -195 -72 -157 0 -285 118 -298 276 -18 233 221
393 433 290z"/>
<path d="M6340 1470 l0 -480 100 0 100 0 0 480 0 480 -100 0 -100 0 0 -480z"/>
<path d="M1818 1914 c-89 -21 -157 -61 -229 -133 -126 -127 -175 -296 -134
-469 80 -338 464 -492 747 -299 55 38 158 152 158 176 0 10 -144 111 -157 111
-5 0 -17 -13 -26 -30 -88 -148 -290 -186 -425 -79 -32 25 -92 107 -92 126 0
11 70 13 375 13 l374 0 7 36 c10 52 -3 161 -26 229 -82 238 -332 378 -572 319z
m237 -217 c28 -14 62 -38 76 -54 28 -29 69 -92 69 -105 0 -5 -121 -8 -270 -8
-148 0 -270 3 -270 8 0 13 41 76 69 105 26 29 83 62 131 78 45 15 142 3 195
-24z"/>
<path d="M2520 1460 l0 -470 100 0 100 0 0 265 c0 240 2 269 20 318 86 229
401 264 530 60 l30 -47 0 -298 0 -298 101 0 100 0 -3 323 -3 322 -28 57 c-81
164 -290 261 -494 230 -82 -13 -166 -47 -220 -88 l-33 -25 0 60 0 61 -100 0
-100 0 0 -470z"/>
<path d="M0 1435 l0 -485 100 0 100 0 0 485 0 485 -100 0 -100 0 0 -485z"/>
<path d="M5131 724 c-12 -15 -21 -37 -21 -49 0 -18 395 -600 446 -656 27 -30
88 -25 113 7 12 15 21 37 21 49 0 25 -1 27 -233 360 -219 315 -219 315 -267
315 -30 0 -43 -6 -59 -26z"/>
</g>
</svg>
