<svg width="230" height="73" viewBox="0 0 230 73" fill="none" xmlns="http://www.w3.org/2000/svg">
<g filter="url(#filter0_d_359_783)">
<path d="M116.919 0.0539761C111.031 1.19022 106.519 3.64349 102.696 7.80112C99.4841 11.2873 97.4449 15.2642 96.4763 20.0416C95.7626 23.4762 95.9411 28.486 96.8842 31.7914C99.3822 40.5199 105.984 47.1308 114.498 49.3775C118.143 50.3329 122.833 50.3329 126.478 49.3775C134.991 47.1308 141.593 40.5199 144.091 31.7914C145.034 28.486 145.213 23.4762 144.499 20.0416C142.893 12.1912 137.999 5.73521 131.066 2.3523C127.599 0.647924 125.356 0.105624 121.125 0.0281523C119.162 -0.0234953 117.276 0.00232853 116.919 0.0539761ZM125.662 4.28908C132.825 6.12257 138.687 12.1395 140.675 19.6542C141.389 22.4174 141.44 27.3497 140.777 29.9838C138.789 37.7051 133.309 43.5154 125.917 45.6588C123.062 46.4852 117.913 46.4852 115.058 45.6588C107.666 43.5154 102.186 37.7309 100.198 29.9838C99.5351 27.3756 99.5861 22.4174 100.325 19.6542C100.912 17.3559 102.772 13.4049 103.919 12.0362L104.659 11.1324L104.684 13.3791V15.6516H113.35V39.4095H118.448V15.6516H127.115V11.0033H116.027C109.553 11.0033 104.939 10.9 104.939 10.7709C104.939 10.3835 107.488 8.16265 109.323 6.94893C111.362 5.60609 114.192 4.44402 116.282 4.05667C117.123 3.90172 118.092 3.72096 118.448 3.66931C119.697 3.4369 123.776 3.79843 125.662 4.28908Z" fill="#242F9B"/>
<path d="M130.174 39.4095H135.781V11.0033H130.174V39.4095Z" fill="#242F9B"/>
<path d="M153.165 8.39506C152.426 8.6533 151.381 9.22143 150.871 9.63461C149.699 10.5643 148.373 12.5269 148.016 13.7922C147.863 14.3862 147.762 19.4735 147.762 27.0657V39.4095H152.859V25.9811H158.977V20.8163H152.859V18.3372C152.859 15.4966 153.267 14.3087 154.491 13.5598C155.179 13.1466 155.816 13.0692 158.926 13.0692H162.546V7.90441H158.544C155.332 7.93024 154.236 8.00771 153.165 8.39506Z" fill="#242F9B"/>
<path d="M165.604 13.0692H170.702V7.90441H165.604V13.0692Z" fill="#242F9B"/>
<path d="M4 14.1021H9.09793V9.45384H4V14.1021Z" fill="#242F9B"/>
<path d="M32.5483 17.6916L31.1209 16.8136C29.5915 15.884 26.9151 15.1351 25.1053 15.1351C23.5505 15.1351 21.027 15.7807 19.4721 16.5812C17.7134 17.485 14.9605 20.3257 14.1193 22.1075C12.6919 25.1289 12.335 28.047 13.0487 31.0942C14.4252 36.9562 19.3192 40.9589 25.1563 40.9589C27.1955 40.9589 29.8974 40.3133 30.8915 39.5644C31.3758 39.2029 31.3758 39.177 30.5346 37.421C30.0758 36.4397 29.4896 35.3809 29.2602 35.0711C28.8523 34.5029 28.8013 34.5029 27.8837 34.8903C26.5583 35.4584 24.0093 35.3809 22.6074 34.7353C17.1016 32.2304 16.8467 24.4833 22.1995 21.6427C23.2701 21.0746 23.8309 20.9713 25.4112 20.9454C28.317 20.9454 30.3817 22.2108 31.7326 24.819L32.4209 26.1102L32.5738 40.4424H37.6462V9.45384H32.5483V17.6916Z" fill="#242F9B"/>
<path d="M184.339 13.3274C178.731 14.5411 174.73 18.8021 173.939 24.3542C173.022 30.681 177.151 36.8013 183.473 38.5056C186.327 39.2803 189.921 38.893 192.725 37.4985C194.076 36.8271 195.937 35.4068 195.937 35.0194C195.937 34.9161 195.07 34.0381 194.025 33.1085L192.139 31.3783L191.17 32.153C189.896 33.1859 188.29 33.7282 186.531 33.7282C182.427 33.7282 179.216 30.6552 178.935 26.4976C178.477 19.9641 185.818 15.9356 191.068 19.8092L192.19 20.6097L193.923 18.8537C194.892 17.8724 195.682 16.9427 195.682 16.7878C195.682 16.2972 193.057 14.6186 191.196 13.9472C189.284 13.2241 186.047 12.9401 184.339 13.3274Z" fill="#242F9B"/>
<path d="M209.829 13.3274C204.221 14.5411 200.219 18.8021 199.429 24.3542C198.511 30.681 202.641 36.8013 208.962 38.5056C211.97 39.332 215.87 38.8155 218.572 37.2403L219.642 36.5947V38.3765H225.25V13.5856H219.642V15.445L218.699 14.8768C216.354 13.4824 212.327 12.7593 209.829 13.3274ZM215.436 19.1119C220.254 21.5136 221.044 28.2277 216.966 31.8689C215.564 33.1343 213.933 33.7282 211.995 33.7282C207.994 33.7282 204.731 30.681 204.399 26.6008C203.941 20.5839 210.033 16.4521 215.436 19.1119Z" fill="#242F9B"/>
<path d="M165.604 39.4095H170.702V14.6186H165.604V39.4095Z" fill="#242F9B"/>
<path d="M50.3402 15.5483C48.0716 16.0906 46.3383 17.1235 44.503 18.9828C41.2914 22.2625 40.0424 26.6267 41.0874 31.0942C43.1266 39.8226 52.9146 43.7995 60.1282 38.8155C61.5301 37.8342 64.1556 34.8903 64.1556 34.2705C64.1556 34.0123 60.4851 31.4041 60.1537 31.4041C60.0262 31.4041 59.7204 31.7398 59.491 32.1788C57.2479 36.0007 52.099 36.982 48.6579 34.2189C47.8422 33.5733 46.3128 31.4557 46.3128 30.9651C46.3128 30.681 48.0971 30.6294 55.8714 30.6294H65.4045L65.583 29.6997C65.8379 28.3569 65.5065 25.5421 64.9202 23.7861C62.8301 17.64 56.4577 14.0247 50.3402 15.5483ZM56.3812 21.152C57.0949 21.5136 57.9616 22.1333 58.3184 22.5465C59.0321 23.2954 60.0772 24.9223 60.0772 25.258C60.0772 25.3871 56.993 25.4646 53.195 25.4646C49.4225 25.4646 46.3128 25.3871 46.3128 25.258C46.3128 24.9223 47.3579 23.2954 48.0716 22.5465C48.7343 21.7976 50.1872 20.9454 51.4107 20.5323C52.5578 20.1449 55.0303 20.4548 56.3812 21.152Z" fill="#242F9B"/>
<path d="M68.2338 39.4095H73.3317V32.5661C73.3317 26.3684 73.3827 25.6195 73.8415 24.3542C76.0336 18.4405 84.0629 17.5367 87.351 22.8048L88.1157 24.0185V39.4095H93.2391L93.0862 22.7531L92.3725 21.2811C90.3078 17.046 84.9805 14.5411 79.7806 15.3417C77.6905 15.6774 75.5493 16.5554 74.1729 17.6142L73.3317 18.2598V15.1351H68.2338V39.4095Z" fill="#242F9B"/>
<path d="M4 40.4424H9.09793V15.3933H4V40.4424Z" fill="#242F9B"/>
<path d="M134.787 46.2786C134.481 46.666 134.252 47.2341 134.252 47.544C134.252 48.0088 144.32 63.0382 145.62 64.4844C146.309 65.2591 147.863 65.13 148.501 64.3036C148.807 63.9163 149.036 63.3481 149.036 63.0382C149.036 62.3927 149.011 62.341 143.097 53.7417C137.515 45.6072 137.515 45.6072 136.291 45.6072C135.527 45.6072 135.195 45.7621 134.787 46.2786Z" fill="#242F9B"/>
</g>
<defs>
<filter id="filter0_d_359_783" x="0" y="0" width="229.25" height="73" filterUnits="userSpaceOnUse" color-interpolation-filters="sRGB">
<feFlood flood-opacity="0" result="BackgroundImageFix"/>
<feColorMatrix in="SourceAlpha" type="matrix" values="0 0 0 0 0 0 0 0 0 0 0 0 0 0 0 0 0 0 127 0" result="hardAlpha"/>
<feOffset dy="4"/>
<feGaussianBlur stdDeviation="2"/>
<feComposite in2="hardAlpha" operator="out"/>
<feColorMatrix type="matrix" values="0 0 0 0 0 0 0 0 0 0 0 0 0 0 0 0 0 0 0.25 0"/>
<feBlend mode="normal" in2="BackgroundImageFix" result="effect1_dropShadow_359_783"/>
<feBlend mode="normal" in="SourceGraphic" in2="effect1_dropShadow_359_783" result="shape"/>
</filter>
</defs>
</svg>
