<svg width="16" height="20" viewBox="0 0 16 20" fill="none" xmlns="http://www.w3.org/2000/svg">
<path fill-rule="evenodd" clip-rule="evenodd" d="M6.30364 0.016242C4.52598 0.358638 3.16388 1.0979 2.00956 2.35076C1.03993 3.40129 0.424287 4.59968 0.131859 6.0393C-0.0836149 7.07427 -0.0297465 8.58392 0.254986 9.57998C1.00914 12.2102 3.00228 14.2023 5.57257 14.8793C6.67302 15.1673 8.08899 15.1673 9.18945 14.8793C11.7597 14.2023 13.7529 12.2102 14.507 9.57998C14.7918 8.58392 14.8456 7.07427 14.6302 6.0393C14.1453 3.67365 12.6678 1.72822 10.5746 0.708816C9.52805 0.195222 8.85084 0.031806 7.57339 0.008461C6.98084 -0.00710297 6.41138 0.000679016 6.30364 0.016242ZM8.94319 1.29245C11.1056 1.84495 12.8756 3.65809 13.4758 5.92257C13.6913 6.75521 13.7067 8.24152 13.5066 9.03526C12.9064 11.362 11.2518 13.1129 9.02015 13.7588C8.15825 14.0078 6.60376 14.0078 5.74187 13.7588C3.51018 13.1129 1.85565 11.3698 1.2554 9.03526C1.05532 8.24931 1.07071 6.75521 1.29388 5.92257C1.47087 5.23 2.03264 4.03939 2.37894 3.62696L2.60211 3.3546L2.68676 3.24566C2.68676 3.12893 3.45631 2.4597 4.01038 2.09396C4.62602 1.68931 5.48022 1.33914 6.11125 1.22241L6.20728 1.20473C6.43503 1.16278 6.67102 1.11931 6.76537 1.10568C7.14245 1.03565 8.37372 1.14459 8.94319 1.29245Z" fill="white"/>
<path d="M11.6982 13.9455C11.6059 14.0623 11.5366 14.2335 11.5366 14.3268C11.5366 14.4669 14.5763 18.9959 14.9688 19.4317C15.1766 19.6651 15.646 19.6262 15.8384 19.3772C15.9307 19.2605 16 19.0893 16 18.9959C16 18.8013 15.9923 18.7858 14.207 16.1945C12.5216 13.7432 12.5216 13.7432 12.1523 13.7432C11.9214 13.7432 11.8214 13.7899 11.6982 13.9455Z" fill="white"/>
</svg>
