<?xml version="1.0" standalone="no"?>
<!DOCTYPE svg PUBLIC "-//W3C//DTD SVG 20010904//EN"
 "http://www.w3.org/TR/2001/REC-SVG-20010904/DTD/svg10.dtd">
<svg version="1.0" xmlns="http://www.w3.org/2000/svg"
 width="736.000000pt" height="600.000000pt" viewBox="0 0 736.000000 600.000000"
 preserveAspectRatio="xMidYMid meet">

<g transform="translate(0.000000,600.000000) scale(0.100000,-0.100000)"
fill="#000000" stroke="none">
<path d="M3620 5950 l0 -50 -45 0 -45 0 0 -60 0 -60 45 0 45 0 0 -65 c0 -63
-1 -65 -32 -81 -32 -16 -68 -50 -68 -64 0 -3 -19 -15 -42 -27 -62 -30 -142
-106 -185 -175 -31 -51 -38 -57 -44 -40 -4 11 -18 27 -31 36 -23 16 -23 16
-31 -21 -4 -21 -11 -72 -15 -113 -6 -68 -9 -75 -30 -78 -14 -2 -22 -9 -19 -16
3 -7 -1 -39 -9 -72 -7 -32 -11 -68 -8 -80 3 -12 -2 -36 -11 -53 -13 -27 -19
-30 -35 -21 -16 8 -22 7 -26 -4 -3 -8 -3 -19 -1 -23 3 -5 -1 -44 -10 -88 -21
-111 -14 -182 23 -242 l30 -48 162 -3 161 -2 12 -38 c14 -47 25 -310 12 -323
-11 -11 31 -49 -608 556 -267 253 -495 462 -506 463 -24 4 -84 -48 -92 -79 -3
-12 5 -31 20 -49 l25 -30 -73 -83 c-125 -139 -117 -118 -65 -168 46 -43 57
-74 34 -97 -22 -22 -54 -12 -93 28 -21 22 -42 40 -46 40 -7 0 -192 -209 -210
-239 -12 -18 -3 -30 112 -139 68 -66 139 -132 157 -147 l32 -27 44 49 c23 26
73 83 111 126 l68 77 -52 55 c-54 57 -60 74 -35 99 24 25 41 19 93 -29 26 -25
51 -45 56 -45 4 0 27 22 52 50 45 50 69 60 91 38 21 -21 13 -51 -28 -99 -22
-26 -40 -52 -40 -58 0 -6 20 -29 45 -52 45 -42 56 -74 33 -97 -22 -22 -48 -13
-97 33 l-49 46 -40 -43 c-102 -111 -182 -204 -182 -213 0 -14 288 -285 303
-284 13 0 210 223 215 242 1 7 -16 30 -38 52 -22 21 -40 47 -40 56 0 63 47 66
108 7 l43 -43 47 55 c26 30 68 77 94 105 l46 49 89 -85 c79 -76 295 -281 316
-299 4 -4 3 -19 -4 -33 l-12 -27 -345 0 -344 0 7 -100 7 -100 -150 0 c-83 0
-153 4 -156 9 -3 5 -32 19 -63 31 -32 13 -78 42 -103 65 -82 77 -161 102 -265
84 -55 -9 -69 -16 -99 -50 -68 -74 -96 -156 -77 -226 6 -22 30 -69 53 -104 23
-35 47 -80 54 -99 11 -31 10 -35 -10 -45 -21 -11 -21 -16 -9 -78 3 -16 -3 -52
-16 -87 -26 -70 -26 -165 -1 -165 8 0 20 -7 27 -15 16 -22 28 -5 24 37 -3 43
52 222 57 182 2 -14 -6 -49 -17 -78 -26 -63 -29 -161 -6 -161 11 0 15 12 15
48 0 26 10 76 22 112 11 36 23 72 26 80 4 12 5 13 9 1 3 -8 -7 -52 -22 -98
-23 -69 -27 -91 -19 -121 13 -54 29 -45 30 18 1 30 11 79 23 108 11 29 21 64
21 77 0 13 5 27 10 30 17 10 11 -24 -16 -110 -29 -89 -28 -155 3 -155 13 0 14
7 9 40 -5 29 0 59 19 112 14 39 25 82 25 95 0 13 5 23 10 23 16 0 12 -27 -16
-110 -20 -57 -25 -88 -20 -114 11 -57 33 -46 33 17 1 29 10 75 22 105 11 29
21 64 21 77 0 14 5 25 10 25 17 0 11 -39 -15 -116 -19 -54 -24 -84 -19 -114
10 -61 33 -52 33 13 -1 30 8 74 20 105 12 29 21 64 21 77 0 14 5 25 10 25 15
0 12 -20 -15 -100 -26 -75 -32 -134 -16 -159 15 -24 30 -2 24 34 -6 36 40 193
60 206 5 4 10 47 11 96 l1 90 -63 103 c-80 131 -85 152 -41 179 48 29 98 35
143 16 55 -23 175 -97 298 -183 124 -87 110 -50 134 -351 15 -196 15 -204 -3
-220 -10 -10 -54 -52 -99 -94 l-81 -77 -36 15 c-78 32 -119 5 -116 -75 2 -41
-2 -55 -21 -75 -13 -14 -27 -25 -31 -25 -5 0 -13 19 -19 43 -15 55 -70 138
-114 172 -93 71 -228 86 -331 36 -174 -83 -240 -280 -154 -461 34 -72 33 -70
15 -70 -27 0 -116 -81 -145 -131 -16 -29 -35 -80 -41 -114 -44 -234 168 -448
389 -391 92 23 156 71 212 156 l16 24 31 -26 c45 -37 133 -68 197 -68 135 0
264 96 304 225 36 116 22 218 -42 311 -36 52 -115 112 -159 121 -35 7 -32 21
10 50 27 18 38 20 68 11 68 -18 106 31 84 112 l-12 44 54 47 c29 26 54 46 55
45 1 -1 14 -144 28 -317 15 -184 32 -333 41 -361 47 -145 185 -272 376 -345
l73 -28 388 -3 c435 -3 449 -2 592 67 100 48 175 108 231 183 71 97 80 132
104 433 12 149 24 293 28 321 l7 52 53 -47 54 -47 -12 -44 c-22 -80 16 -130
83 -112 28 8 41 6 65 -8 47 -29 46 -37 -12 -63 -155 -71 -229 -246 -177 -417
41 -134 168 -230 306 -230 64 0 152 31 197 68 30 25 32 26 42 8 21 -37 81 -99
119 -123 20 -13 65 -31 98 -39 178 -46 367 92 394 286 8 57 -9 148 -37 204
-25 49 -111 134 -144 142 -13 3 -24 8 -24 9 0 2 11 26 25 53 53 105 56 211 9
313 -54 116 -164 189 -286 189 -76 0 -149 -23 -204 -65 -43 -33 -98 -116 -115
-172 -7 -24 -15 -43 -19 -43 -4 0 -17 11 -30 25 -19 20 -23 34 -21 75 3 80
-38 107 -115 75 l-36 -15 -99 93 c-54 50 -99 99 -99 107 0 26 29 382 35 426 5
37 12 45 98 106 120 85 193 131 278 174 57 29 75 34 106 28 78 -14 113 -47 96
-91 -5 -11 -35 -64 -68 -118 l-60 -99 1 -89 c1 -49 6 -92 11 -96 20 -12 65
-172 60 -207 -6 -36 9 -56 24 -33 16 25 10 84 -16 159 -27 80 -30 100 -15 100
6 0 10 -11 10 -25 0 -13 9 -48 21 -77 12 -31 21 -75 20 -105 0 -65 23 -74 33
-13 5 30 0 60 -19 114 -26 77 -32 116 -15 116 6 0 10 -11 10 -25 0 -13 10 -50
22 -82 12 -33 21 -79 20 -105 -1 -35 3 -48 13 -48 28 0 29 66 1 153 -29 90
-31 107 -16 107 6 0 10 -10 10 -23 0 -13 11 -56 25 -95 19 -53 24 -83 19 -112
-5 -33 -4 -40 9 -40 31 0 32 66 3 155 -27 86 -33 120 -16 110 6 -3 10 -17 10
-30 0 -13 10 -48 21 -77 12 -29 22 -78 23 -108 1 -63 17 -72 30 -18 8 30 4 52
-19 121 -15 46 -25 90 -22 98 4 12 5 11 9 -1 3 -8 15 -44 26 -80 12 -36 22
-86 22 -112 0 -36 4 -48 15 -48 23 0 20 98 -5 160 -11 28 -20 63 -19 78 0 24
1 25 8 7 28 -68 51 -156 51 -192 0 -42 11 -55 27 -30 4 6 15 12 23 12 25 0 25
95 1 161 -24 62 -26 96 -10 126 10 18 8 25 -10 39 -31 25 -26 46 29 134 28 44
55 98 61 119 19 69 -9 151 -77 225 -29 33 -44 41 -95 50 -104 18 -184 -6 -265
-81 -25 -23 -79 -56 -122 -74 -75 -33 -80 -34 -215 -34 l-139 0 7 100 7 100
-344 0 -345 0 -12 27 c-10 21 -9 29 1 38 7 6 99 93 205 193 105 100 195 182
200 181 4 0 46 -45 93 -100 46 -54 87 -99 90 -99 3 0 24 18 45 40 56 58 105
54 105 -9 0 -9 -18 -35 -40 -56 -22 -21 -40 -43 -40 -48 0 -5 39 -54 88 -109
48 -55 95 -110 104 -122 16 -19 19 -20 41 -6 40 25 289 268 286 279 -8 22
-205 240 -218 240 -8 1 -33 -17 -57 -39 -45 -41 -71 -49 -92 -28 -23 23 -12
54 33 98 25 24 45 48 45 53 0 5 -18 29 -40 54 -41 46 -50 79 -28 101 22 22 47
12 90 -38 24 -27 47 -50 52 -50 5 0 31 20 57 45 52 48 69 54 93 29 25 -25 19
-42 -35 -99 l-52 -55 59 -66 c33 -37 75 -85 94 -108 75 -88 64 -83 107 -46
100 88 273 255 273 264 0 13 -208 256 -219 256 -4 0 -25 -18 -46 -40 -39 -40
-71 -50 -93 -28 -23 23 -12 54 34 97 52 50 60 29 -65 168 l-73 83 26 31 c14
17 26 35 26 40 0 19 -73 89 -94 89 -18 0 -489 -436 -1000 -927 -71 -69 -112
-101 -118 -95 -14 14 -4 275 11 325 l12 37 158 0 c178 0 173 -2 210 80 24 53
26 117 7 219 -8 41 -12 80 -9 87 8 22 -6 35 -27 24 -16 -9 -22 -5 -35 21 -9
17 -14 41 -11 53 3 12 -1 48 -8 80 -8 33 -12 65 -9 72 3 7 -5 14 -19 16 -21 3
-24 10 -30 78 -4 41 -11 92 -15 113 -8 37 -8 37 -31 21 -13 -9 -27 -25 -31
-36 -6 -17 -13 -11 -44 40 -42 69 -123 145 -184 175 -22 11 -46 30 -52 43 -5
13 -28 32 -51 44 l-40 20 0 65 0 65 45 0 45 0 0 60 0 60 -45 0 -45 0 0 50 0
50 -60 0 -60 0 0 -50z m88 -33 l3 -47 45 0 c42 0 44 -1 44 -30 0 -29 -2 -30
-45 -30 l-44 0 -3 -77 c-3 -76 -4 -78 -28 -78 -24 0 -25 2 -28 78 l-3 77 -44
0 c-43 0 -45 1 -45 30 0 29 2 30 45 30 l45 0 0 43 c0 50 5 58 34 53 17 -2 22
-11 24 -49z m41 -308 c17 -6 31 -14 31 -17 0 -4 -45 -7 -100 -7 -55 0 -100 3
-100 7 0 23 116 35 169 17z m98 -84 c75 -37 185 -146 218 -216 26 -57 32 -89
15 -89 -5 0 -10 9 -10 19 0 29 -35 103 -57 123 -19 17 -20 17 -40 -5 -25 -27
-53 -84 -53 -107 0 -22 -25 -44 -40 -35 -5 3 -10 17 -10 30 0 13 -4 27 -10 30
-5 3 -10 14 -10 23 -1 9 -14 33 -30 52 -29 33 -30 34 -45 15 -18 -23 -50 -89
-60 -122 -12 -44 -62 -38 -72 8 -3 16 -10 32 -14 35 -5 3 -9 13 -9 22 0 9 -12
30 -26 46 l-26 30 -20 -25 c-22 -28 -58 -104 -58 -124 0 -8 -5 -17 -10 -20
-15 -9 -40 13 -40 35 0 23 -28 80 -53 107 -20 22 -21 22 -40 5 -22 -20 -57
-94 -57 -123 0 -10 -4 -19 -10 -19 -34 0 22 118 93 197 99 107 187 145 324
140 76 -3 102 -9 150 -32z m-457 -220 c0 -8 8 -28 17 -47 37 -74 40 -68 -36
-68 l-69 0 12 39 c6 22 15 43 19 47 4 4 7 15 7 24 0 25 21 42 37 29 7 -7 13
-17 13 -24z m205 -3 c-2 -3 2 -14 10 -26 8 -11 15 -27 15 -35 0 -8 7 -23 17
-33 15 -17 13 -18 -67 -18 -80 0 -82 1 -67 18 10 10 17 28 17 40 0 11 5 24 10
27 6 3 10 14 10 24 0 30 21 43 42 24 10 -9 16 -18 13 -21z m225 -3 c0 -10 5
-21 10 -24 6 -3 10 -16 10 -27 0 -12 7 -30 17 -40 15 -17 13 -18 -67 -18 -80
0 -82 1 -67 18 10 10 17 25 17 33 0 8 7 25 16 37 8 12 12 22 8 22 -4 0 1 9 11
20 20 23 45 11 45 -21z m200 1 c0 -9 3 -20 7 -24 4 -4 13 -25 19 -47 l12 -39
-71 0 c-55 0 -68 3 -59 12 7 7 12 22 12 34 0 12 7 27 15 34 8 7 15 20 15 29 0
9 5 22 12 29 14 14 38 -2 38 -28z m-797 4 c-3 -9 0 -20 7 -24 7 -4 16 -26 20
-49 7 -40 7 -41 -22 -41 -16 0 -31 6 -34 14 -8 21 16 127 26 121 5 -3 6 -13 3
-21z m933 -11 c4 -14 7 -43 8 -62 1 -33 -1 -36 -30 -39 l-32 -3 8 42 c4 23 13
45 20 49 7 4 10 15 7 24 -4 9 -2 16 3 16 5 0 13 -12 16 -27z m9 -142 c11 -36
-16 -108 -36 -95 -5 3 -15 20 -23 37 -7 18 -24 38 -38 46 -23 12 -28 11 -52
-10 -14 -12 -26 -31 -26 -40 0 -10 -4 -21 -10 -24 -5 -3 -14 -20 -19 -38 -6
-22 -9 -25 -10 -11 -1 11 -8 29 -16 40 -8 10 -15 27 -15 36 0 9 -13 26 -30 38
-29 21 -30 21 -54 3 -26 -19 -56 -77 -56 -109 -1 -20 -40 50 -40 71 0 10 -52
55 -64 55 -9 0 -56 -47 -56 -57 0 -5 -9 -27 -20 -49 -12 -25 -19 -32 -20 -20
0 32 -30 90 -56 109 -23 17 -27 18 -50 2 -14 -9 -27 -24 -30 -33 -3 -9 -10
-26 -16 -37 -6 -11 -14 -31 -19 -45 -6 -21 -7 -22 -8 -4 -1 11 -8 29 -16 40
-8 10 -15 26 -15 35 0 15 -43 59 -58 59 -13 0 -62 -50 -62 -64 0 -22 -26 -38
-37 -24 -15 19 -25 67 -18 89 6 18 22 19 485 19 463 0 479 -1 485 -19z m-1734
-138 c68 -64 198 -187 289 -273 91 -86 253 -239 360 -340 107 -101 240 -227
295 -280 55 -53 129 -124 165 -158 l65 -62 -66 0 -66 0 -129 122 c-71 67 -208
196 -304 287 -207 196 -313 297 -556 528 -99 95 -192 182 -207 193 -15 12 -27
27 -27 34 0 16 38 66 49 66 5 0 64 -53 132 -117z m2658 91 c27 -35 26 -48 -5
-73 -14 -11 -108 -98 -207 -193 -100 -95 -229 -218 -287 -273 -58 -55 -184
-174 -280 -265 -96 -91 -230 -218 -298 -282 l-123 -118 -67 0 -67 0 65 62 c36
34 110 105 165 158 55 53 224 213 375 355 295 278 364 343 563 533 70 67 131
122 136 122 5 0 19 -12 30 -26z m-1753 -11 c3 -10 12 -30 20 -45 8 -14 14 -35
14 -47 0 -11 8 -25 18 -30 26 -14 52 5 52 38 0 16 6 34 14 41 8 6 16 21 18 33
8 55 66 6 82 -71 10 -41 31 -59 51 -42 8 7 15 19 15 27 0 8 6 29 14 46 8 18
16 40 20 50 3 9 15 17 26 17 11 0 23 -8 26 -17 4 -10 12 -32 20 -50 8 -17 14
-38 14 -46 0 -8 7 -20 15 -27 21 -17 43 2 51 46 3 19 10 37 15 40 5 3 9 14 9
24 0 19 32 36 50 25 5 -3 10 -14 10 -24 0 -10 7 -24 15 -31 8 -7 15 -25 15
-40 0 -27 15 -47 35 -45 20 1 35 17 35 37 0 11 6 32 14 46 8 15 17 35 20 45
10 30 39 15 63 -33 13 -25 23 -52 23 -61 0 -9 6 -22 14 -28 19 -16 46 12 46
48 0 16 6 34 14 41 8 6 12 18 9 26 -3 8 -1 14 4 14 17 0 36 -106 23 -130 -11
-20 -17 -20 -540 -20 -523 0 -529 0 -540 20 -13 24 6 130 23 130 5 0 7 -6 4
-14 -3 -8 1 -20 9 -26 8 -7 14 -25 14 -41 0 -36 27 -64 46 -48 8 6 14 19 14
28 0 9 7 29 15 45 8 15 15 34 15 41 0 27 48 33 56 8z m-965 -196 c42 -40 184
-175 317 -300 l241 -229 -76 -89 c-43 -49 -79 -89 -82 -89 -4 0 -26 16 -50 35
-51 41 -71 43 -105 13 -42 -38 -39 -87 9 -131 19 -17 35 -36 35 -40 0 -9 -169
-200 -179 -204 -3 -1 -64 53 -134 120 l-129 122 87 100 c48 55 89 102 90 103
2 2 27 -15 55 -37 59 -47 79 -50 114 -18 48 41 41 89 -22 144 l-36 31 30 38
c47 61 52 74 43 108 -11 38 -34 56 -73 56 -22 0 -39 -11 -70 -44 l-41 -45 -45
39 c-56 49 -98 53 -129 14 -34 -43 -27 -78 25 -128 l45 -44 -88 -100 c-48 -55
-92 -100 -98 -101 -5 0 -68 55 -139 123 l-129 124 88 101 c48 55 90 101 92
101 2 0 25 -16 51 -36 36 -27 52 -34 72 -29 70 18 82 87 25 149 -19 21 -35 41
-35 43 0 10 146 172 155 172 6 0 44 -32 86 -72z m2787 -13 c40 -45 72 -85 72
-88 0 -3 -16 -23 -35 -43 -57 -61 -45 -130 25 -148 20 -5 36 2 72 29 26 20 49
36 51 36 2 0 44 -46 92 -101 l88 -101 -129 -124 c-71 -68 -133 -123 -139 -123
-5 0 -30 24 -54 52 -24 29 -64 74 -89 100 l-44 48 46 44 c52 51 59 85 25 129
-31 39 -73 35 -129 -14 l-45 -40 -41 45 c-31 34 -48 45 -70 45 -39 0 -62 -18
-73 -56 -10 -35 -4 -49 43 -109 l30 -37 -36 -31 c-63 -55 -70 -103 -22 -144
35 -32 55 -29 114 18 28 22 53 39 54 37 2 -1 43 -48 91 -103 l88 -99 -129
-123 c-71 -67 -132 -121 -135 -120 -10 4 -179 195 -179 203 0 4 13 19 29 34
56 49 60 109 9 144 -33 23 -50 20 -99 -19 -24 -19 -46 -35 -50 -35 -3 0 -40
40 -82 89 l-76 89 252 239 c138 131 281 266 317 300 36 35 70 62 76 60 6 -1
43 -39 82 -83z m-1904 24 c-4 -7 -18 -27 -31 -44 -13 -17 -23 -39 -23 -50 -1
-10 -7 -30 -15 -44 -8 -14 -14 -39 -15 -57 0 -46 -18 -50 -25 -6 -4 21 -11 49
-17 63 -6 14 -12 35 -14 47 -1 13 -5 32 -9 43 -3 11 -3 29 0 40 6 18 15 20 81
20 57 0 73 -3 68 -12z m266 1 c0 -6 -13 -27 -30 -46 -16 -18 -30 -45 -30 -58
0 -13 -4 -26 -9 -29 -5 -3 -12 -26 -15 -50 -13 -84 -58 -84 -70 -1 -4 25 -11
47 -17 50 -5 4 -9 17 -9 30 0 13 -10 36 -23 52 -56 69 -63 63 77 63 86 0 126
-4 126 -11z m294 -1 c-4 -7 -18 -27 -31 -44 -13 -17 -23 -38 -23 -47 0 -9 -6
-31 -14 -49 -8 -18 -17 -45 -21 -60 -12 -61 -95 -53 -95 10 -1 15 -7 38 -15
52 -8 14 -14 34 -15 44 0 11 -10 33 -23 50 -44 59 -50 56 103 56 110 0 140 -3
134 -12z m266 3 c0 -4 -13 -25 -30 -46 -16 -21 -30 -48 -30 -61 0 -12 -4 -25
-9 -29 -6 -3 -13 -25 -17 -50 -7 -52 -26 -74 -49 -55 -8 7 -15 18 -15 25 0 32
-45 153 -66 176 -42 45 -34 49 96 49 66 0 120 -4 120 -9z m175 -11 c3 -10 2
-36 -4 -56 -6 -21 -8 -40 -6 -44 3 -4 -2 -13 -10 -20 -8 -7 -15 -24 -15 -39 0
-38 -11 -72 -21 -65 -5 3 -9 20 -9 37 -1 18 -7 43 -15 57 -8 14 -14 34 -15 44
0 11 -10 33 -23 50 -43 58 -44 56 37 56 65 0 75 -2 81 -20z m-965 -62 c8 -13
15 -30 15 -38 1 -8 6 -26 12 -40 7 -14 18 -45 25 -70 10 -33 20 -47 40 -54 39
-14 75 13 83 61 3 21 12 51 20 66 8 16 15 37 15 46 0 10 9 26 19 35 18 16 20
16 35 -6 9 -12 16 -32 16 -43 0 -11 7 -29 15 -39 8 -11 15 -31 15 -45 1 -45
33 -76 80 -76 49 0 80 29 80 74 0 15 7 36 15 47 8 10 15 28 15 39 0 11 7 31
16 43 15 22 17 22 35 6 10 -9 19 -27 19 -39 0 -11 5 -26 11 -32 6 -6 15 -33
20 -60 14 -75 66 -106 109 -63 11 11 20 30 20 43 0 12 9 40 20 61 10 22 17 42
15 46 -3 4 5 20 17 35 l22 28 18 -23 c10 -12 18 -32 18 -44 0 -11 7 -30 15
-40 8 -11 15 -34 15 -52 0 -40 30 -80 54 -71 19 8 36 47 36 86 0 16 7 34 15
41 9 7 15 29 15 53 0 60 15 34 30 -51 14 -87 7 -148 -23 -194 l-23 -33 -584 0
-584 0 -23 34 c-32 48 -38 92 -23 188 14 90 30 119 30 55 0 -23 6 -45 15 -52
8 -7 15 -25 15 -41 0 -39 17 -78 36 -86 24 -9 54 31 54 71 0 18 7 41 15 52 8
10 15 28 15 39 0 21 26 65 38 65 4 0 14 -10 22 -22z m278 -425 c17 -49 37
-116 43 -150 13 -72 8 -278 -8 -294 -7 -7 -33 12 -81 58 l-72 68 11 84 c10 79
3 196 -18 294 -5 27 -5 27 44 27 l49 0 32 -87z m222 84 c0 -2 -11 -31 -24 -65
-13 -34 -31 -93 -40 -131 -19 -82 -21 -261 -5 -327 14 -53 2 -74 -41 -74 -44
0 -54 20 -40 83 8 34 11 100 8 178 -4 105 -10 138 -37 219 -18 52 -35 101 -37
108 -4 9 20 12 105 12 61 0 111 -1 111 -3z m127 -24 c-21 -98 -28 -215 -18
-294 l11 -84 -72 -68 c-48 -45 -75 -64 -82 -57 -5 5 -12 63 -14 127 -4 133 9
215 54 331 l28 72 49 0 c49 0 49 0 44 -27z m-507 -563 c0 -5 -4 -10 -10 -10
-5 0 -10 5 -10 10 0 6 5 10 10 10 6 0 10 -4 10 -10z m560 0 c0 -5 -4 -10 -10
-10 -5 0 -10 5 -10 10 0 6 5 10 10 10 6 0 10 -4 10 -10z m-1880 -71 c49 -22
110 -65 110 -78 0 -5 -15 -12 -34 -15 -44 -8 -86 -48 -86 -81 0 -34 22 -84 60
-140 46 -67 80 -140 80 -171 l0 -29 -138 1 c-75 0 -146 3 -157 7 -16 5 -20 16
-21 51 -1 37 -11 60 -54 126 -58 89 -72 148 -51 212 14 41 75 116 105 128 40
16 139 11 186 -11z m2566 -56 c-37 -455 -100 -1226 -116 -1413 -11 -131 -26
-254 -34 -278 -21 -59 -65 -120 -130 -180 -70 -63 -139 -103 -238 -136 l-77
-26 -381 0 c-380 0 -382 0 -456 25 -176 59 -323 185 -370 317 -15 43 -20 100
-99 1063 -25 303 -48 585 -51 628 l-7 77 983 0 982 0 -6 -77z m839 37 c89 -86
98 -183 27 -292 -53 -81 -75 -135 -68 -164 9 -33 -16 -38 -176 -39 l-138 0 0
29 c0 31 34 104 80 171 38 56 60 106 60 140 0 33 -42 73 -86 81 -19 3 -34 10
-34 14 0 12 90 75 125 88 17 6 62 10 102 9 67 -2 75 -5 108 -37z m-2811 -243
c5 -52 4 -77 -3 -73 -6 4 -58 40 -116 81 l-106 74 103 3 c57 2 106 1 109 -2 4
-3 10 -40 13 -83z m2111 8 c-58 -41 -111 -77 -116 -81 -9 -5 -5 117 5 151 2 6
45 9 110 7 l107 -3 -106 -74z m-2871 -285 c19 -7 68 -9 135 -5 115 7 153 -3
159 -40 4 -18 2 -18 -19 4 -22 23 -26 24 -129 18 -63 -4 -122 -2 -144 4 -42
12 -80 44 -70 61 4 7 13 3 23 -10 9 -12 29 -26 45 -32z m3580 25 c-3 -7 -18
-22 -32 -32 -23 -15 -45 -18 -156 -15 -121 2 -131 1 -153 -20 -19 -18 -23 -19
-23 -5 0 9 11 24 26 33 21 14 41 16 127 11 113 -7 171 3 189 33 13 21 30 17
22 -5z m-3621 -118 c-9 -28 -22 -72 -29 -97 -10 -37 -13 -40 -13 -17 -1 35 41
177 51 171 4 -3 0 -28 -9 -57z m3615 -10 c12 -39 22 -83 22 -97 -1 -14 -14 16
-30 65 -32 97 -34 105 -22 105 4 0 17 -33 30 -73z m-2758 -325 c0 -58 0 -59
-60 -117 -34 -31 -62 -56 -63 -54 -1 2 -15 18 -30 35 l-28 31 83 81 c46 45 86
82 91 82 4 0 7 -26 7 -58z m1977 -24 l82 -83 -30 -35 -29 -34 -60 59 c-60 59
-60 60 -60 117 0 32 3 58 8 58 4 0 44 -37 89 -82z m-2597 2 c92 -46 155 -134
167 -231 l6 -49 41 23 c59 32 87 78 79 132 -7 58 15 72 73 46 71 -32 154 -153
139 -202 -6 -19 -12 -21 -57 -15 -40 6 -55 3 -83 -14 -30 -19 -83 -86 -74 -94
2 -2 26 -9 52 -16 96 -26 176 -112 204 -219 28 -106 -6 -219 -88 -296 -65 -61
-108 -78 -194 -79 -57 -1 -80 4 -127 27 -31 15 -70 43 -85 61 l-29 32 -17 -41
c-21 -51 -88 -120 -142 -148 -25 -13 -67 -22 -113 -25 -66 -4 -78 -2 -137 27
-64 32 -104 71 -141 141 -15 27 -19 56 -19 130 0 81 4 102 25 143 30 60 87
112 152 141 l50 22 -26 31 c-73 87 -91 221 -44 324 37 80 106 144 188 170 44
15 152 4 200 -21z m3367 1 c174 -88 222 -325 97 -474 l-26 -31 59 -26 c110
-52 166 -138 171 -266 3 -66 0 -91 -17 -129 -34 -76 -76 -121 -146 -156 -59
-29 -71 -31 -137 -27 -46 3 -88 12 -113 25 -52 27 -118 95 -140 144 l-18 39
-40 -36 c-62 -56 -120 -79 -202 -78 -86 1 -129 18 -194 79 -168 157 -107 447
108 512 31 9 58 18 60 19 10 7 -44 76 -74 94 -28 17 -43 20 -83 14 -45 -6 -51
-4 -57 15 -15 49 68 170 139 202 58 26 80 12 73 -46 -8 -54 20 -100 79 -132
l41 -23 6 49 c14 116 97 213 217 252 44 15 152 4 197 -20z"/>
<path d="M1896 3724 c-3 -9 -6 -24 -6 -35 0 -15 -7 -19 -35 -19 -38 0 -44 -15
-25 -64 7 -20 16 -26 40 -26 36 0 57 -30 92 -127 l23 -63 42 0 c28 0 43 4 43
13 0 6 -15 47 -34 90 -34 78 -33 94 5 82 19 -6 20 -4 14 32 -10 60 -12 63 -46
63 -31 0 -31 1 -26 35 l6 35 -44 0 c-30 0 -45 -5 -49 -16z m60 -46 c-1 -30 2
-33 34 -38 23 -3 36 -11 38 -22 3 -14 -4 -18 -32 -18 l-35 0 33 -72 c49 -107
52 -118 27 -118 -12 0 -21 4 -21 9 0 5 -16 48 -36 95 l-36 86 -39 0 c-32 0
-39 4 -39 19 0 15 8 21 33 23 17 2 33 9 33 16 1 6 2 21 3 32 1 13 8 20 20 20
15 0 19 -7 17 -32z"/>
<path d="M3590 3473 c-126 -20 -185 -47 -150 -68 16 -10 60 -102 86 -179 40
-116 56 -229 56 -381 0 -211 -44 -395 -125 -528 -24 -40 -27 -51 -16 -58 15
-9 78 -24 152 -34 l47 -7 0 621 c0 341 0 624 1 629 0 9 -18 11 -51 5z"/>
<path d="M3719 3476 c-2 -2 -3 -286 -1 -631 l2 -627 53 7 c62 8 157 33 157 42
0 3 -13 27 -28 52 -78 128 -123 316 -124 516 -1 211 34 376 113 523 21 41 39
75 39 77 0 8 -203 48 -211 41z"/>
<path d="M3985 3338 c-53 -58 -103 -157 -131 -258 -15 -51 -19 -101 -19 -230
0 -190 11 -247 75 -375 34 -69 109 -166 129 -165 11 1 115 76 118 87 2 5 -11
16 -28 24 -48 19 -140 116 -176 184 -47 90 -70 216 -55 309 24 154 95 275 203
343 32 21 59 40 59 43 0 5 -48 39 -101 74 -27 17 -27 17 -74 -36z"/>
<path d="M3253 3342 c-29 -20 -53 -39 -53 -42 0 -3 27 -22 59 -43 108 -68 179
-189 203 -343 28 -182 -73 -409 -216 -485 -25 -13 -45 -28 -43 -33 3 -10 107
-85 118 -86 20 -1 95 96 129 165 64 128 75 185 75 375 0 182 -16 263 -74 378
-35 68 -106 152 -129 152 -10 -1 -41 -18 -69 -38z"/>
<path d="M3089 3174 c-34 -50 -72 -138 -84 -194 l-7 -35 28 27 c37 34 74 48
129 48 141 0 228 -135 163 -252 -58 -103 -214 -122 -299 -37 -13 13 -19 15
-19 6 0 -30 43 -136 81 -200 45 -76 47 -76 128 -30 211 121 255 426 89 609
-48 52 -129 104 -162 104 -8 0 -29 -21 -47 -46z"/>
<path d="M4159 3195 c-25 -13 -69 -49 -97 -79 -166 -182 -121 -488 90 -609 80
-46 82 -46 127 30 38 64 81 170 81 200 0 9 -6 7 -19 -6 -85 -85 -241 -66 -299
37 -65 117 22 252 163 252 55 0 92 -14 129 -48 l28 -27 -7 35 c-20 95 -100
240 -133 240 -9 -1 -38 -12 -63 -25z"/>
<path d="M5378 3705 c4 -33 3 -35 -26 -35 -37 0 -39 -3 -43 -55 -3 -30 -1 -39
10 -37 38 8 39 -7 5 -85 -18 -43 -34 -84 -34 -90 0 -9 15 -13 43 -13 l42 0 23
63 c12 34 31 77 43 96 17 28 25 32 49 29 25 -4 31 0 40 25 18 54 14 67 -25 67
-28 0 -35 4 -35 19 0 41 -11 51 -54 51 l-42 0 4 -35z m66 -30 c6 -31 11 -35
36 -35 23 0 30 -5 30 -20 0 -17 -7 -20 -39 -20 l-39 0 -36 -86 c-20 -47 -36
-90 -36 -95 0 -5 -9 -9 -21 -9 -25 0 -22 11 27 118 l33 72 -35 0 c-28 0 -35 4
-32 18 2 11 15 19 38 22 32 5 35 8 32 38 -2 26 2 32 17 32 14 0 21 -10 25 -35z"/>
<path d="M1942 2762 c-38 -12 -93 -63 -113 -106 -38 -83 -12 -179 63 -239 73
-58 193 -42 251 34 114 152 -22 362 -201 311z m138 -51 c65 -47 90 -143 55
-210 -59 -115 -215 -115 -272 -1 -29 56 -29 96 0 150 44 83 147 112 217 61z"/>
<path d="M2305 2314 c-67 -35 -106 -98 -107 -173 -1 -131 105 -219 229 -191
124 27 183 188 110 299 -47 70 -160 103 -232 65z m132 -25 c59 -22 103 -87
103 -152 0 -17 -9 -50 -21 -73 -67 -139 -269 -102 -287 51 -6 57 2 86 35 126
45 53 109 71 170 48z"/>
<path d="M1795 2225 c-71 -25 -125 -107 -125 -191 0 -45 45 -126 85 -153 52
-35 130 -40 187 -12 115 56 140 219 48 311 -57 57 -120 71 -195 45z m145 -48
c104 -69 97 -223 -13 -278 -104 -53 -220 22 -221 142 0 123 136 203 234 136z"/>
<path d="M5284 2751 c-111 -51 -143 -198 -67 -300 45 -59 140 -87 210 -60 66
25 122 109 123 184 0 53 -35 121 -81 157 -49 39 -126 47 -185 19z m161 -41
c38 -23 75 -91 75 -136 0 -90 -95 -173 -180 -159 -76 13 -130 79 -130 160 0
130 126 202 235 135z"/>
<path d="M4893 2311 c-75 -34 -113 -119 -99 -216 14 -92 121 -166 217 -150 84
14 151 101 151 194 -2 144 -138 231 -269 172z m166 -38 c47 -36 71 -81 71
-137 0 -166 -218 -221 -289 -72 -43 88 -12 183 74 222 39 18 110 12 144 -13z"/>
<path d="M5442 2229 c-48 -15 -106 -77 -121 -132 -23 -81 8 -171 76 -217 52
-36 153 -36 207 0 54 37 90 116 83 181 -15 123 -131 203 -245 168z m138 -52
c95 -63 99 -203 9 -268 -101 -71 -243 5 -243 131 0 125 136 204 234 137z"/>
<path d="M2288 1136 c-152 -55 -265 -181 -320 -356 -30 -98 -32 -308 -4 -409
58 -210 192 -334 393 -363 145 -21 303 14 400 88 18 14 33 29 33 33 0 5 -20
43 -43 85 l-44 76 -23 -26 c-14 -13 -52 -39 -86 -55 -58 -29 -69 -31 -146 -27
-94 4 -142 23 -195 75 -40 41 -79 115 -93 179 -14 64 -14 209 1 270 31 129
124 240 225 270 76 22 179 13 249 -21 27 -13 50 -23 51 -22 1 1 18 35 39 76
43 86 44 85 -54 123 -44 17 -83 22 -186 25 -118 3 -136 1 -197 -21z"/>
<path d="M4688 1144 c-36 -19 -48 -43 -48 -96 0 -113 156 -145 204 -43 47 97
-60 192 -156 139z"/>
<path d="M0 585 l0 -565 100 0 100 0 0 205 0 205 88 0 c228 1 375 77 432 226
18 46 23 80 23 155 1 85 -2 102 -27 152 -68 139 -204 187 -532 187 l-184 0 0
-565z m450 357 c68 -34 93 -73 92 -146 -1 -74 -30 -130 -85 -158 -34 -18 -63
-23 -149 -26 l-108 -4 0 187 0 188 98 -7 c77 -5 108 -12 152 -34z"/>
<path d="M930 716 c0 -406 1 -436 20 -491 39 -113 124 -182 257 -210 227 -48
440 31 520 193 l28 57 3 443 3 443 -98 -3 -98 -3 -5 -421 -5 -420 -25 -38
c-15 -22 -45 -47 -77 -62 -46 -23 -63 -26 -132 -23 -71 4 -83 7 -118 35 -78
63 -78 57 -81 520 l-3 411 -94 1 -95 0 0 -432z"/>
<path d="M3578 1143 c-10 -2 -18 -5 -18 -6 -1 -1 -52 -253 -114 -560 l-113
-558 96 3 96 3 61 300 c51 248 63 296 71 275 6 -14 57 -152 113 -307 l103
-283 37 0 37 0 107 298 c60 163 111 300 115 304 3 4 28 -108 55 -250 27 -141
54 -276 59 -299 l9 -43 94 0 c52 0 94 2 94 4 0 3 -45 227 -101 498 -55 271
-105 519 -112 552 -13 65 -34 81 -91 70 l-31 -6 -115 -369 c-63 -203 -117
-369 -120 -369 -4 0 -42 111 -86 248 -43 136 -97 303 -119 372 l-41 125 -35 1
c-18 1 -42 0 -51 -3z"/>
<path d="M5370 845 c-30 -9 -72 -29 -92 -45 -20 -17 -39 -30 -41 -30 -2 0 -9
16 -17 35 l-14 35 -68 0 -68 0 0 -410 0 -410 95 0 95 0 0 304 0 305 28 20 c54
38 110 54 165 48 62 -8 95 -30 122 -83 18 -36 20 -62 23 -316 l3 -278 95 0 94
0 0 258 c0 141 -5 286 -11 322 -19 118 -83 202 -178 235 -68 24 -166 28 -231
10z"/>
<path d="M6175 853 c-48 -7 -134 -34 -139 -42 -6 -9 23 -121 34 -134 3 -4 35
0 71 9 76 20 179 15 227 -10 33 -17 75 -87 66 -110 -3 -8 -30 -10 -80 -8 -186
10 -338 -63 -392 -187 -19 -44 -21 -162 -4 -213 18 -51 83 -113 139 -132 106
-36 269 -12 334 50 26 25 27 25 34 5 3 -11 20 -32 36 -46 43 -35 125 -36 166
-1 27 24 27 25 9 44 -36 40 -45 91 -46 247 -1 349 -47 462 -207 511 -50 16
-196 26 -248 17z m235 -439 l32 -7 -4 -72 c-6 -86 -29 -132 -78 -157 -43 -22
-140 -24 -180 -3 -51 26 -64 117 -24 173 37 53 158 85 254 66z"/>
<path d="M6983 850 c-173 -35 -251 -194 -163 -334 33 -51 86 -88 222 -154 64
-31 92 -51 103 -72 23 -45 19 -85 -11 -109 -49 -38 -199 -22 -257 27 -20 18
-18 20 -50 -43 -46 -93 -46 -92 20 -122 50 -24 74 -28 173 -31 100 -3 123 -1
173 18 64 24 120 68 142 111 8 15 18 52 21 82 15 128 -52 213 -225 287 -137
57 -174 99 -141 160 24 45 147 50 226 9 21 -10 41 -16 45 -11 3 4 13 27 22 52
8 25 18 53 22 62 9 23 -37 46 -132 64 -82 15 -126 16 -190 4z"/>
<path d="M4540 766 l0 -75 53 -3 52 -3 3 -333 2 -332 95 0 95 0 0 410 0 410
-150 0 -150 0 0 -74z"/>
</g>
</svg>
